<?xml version="1.0" encoding="utf-8"?>
<!-- Generator: Adobe Illustrator 25.2.1, SVG Export Plug-In . SVG Version: 6.00 Build 0)  -->
<svg version="1.1" id="OBJECTS" xmlns="http://www.w3.org/2000/svg" xmlns:xlink="http://www.w3.org/1999/xlink" x="0px" y="0px"
	 viewBox="0 0 800 800" style="enable-background:new 0 0 800 800;" xml:space="preserve">
<style type="text/css">
	.st0{fill:#CCBAE0;}
	.st1{fill:#56267D;}
	.st2{opacity:0.4;fill:#1F1E21;}
	.st3{fill:#083937;}
	.st4{fill:#042A28;}
	.st5{fill:#F4C3B9;}
	.st6{fill:#EF9D8A;}
	.st7{fill:#E2816B;}
	.st8{opacity:0.4;fill:#EF9D8A;}
	.st9{fill:#629EA1;}
	.st10{fill:#BABABA;}
	.st11{opacity:0.3;fill:#FFFFFF;}
	.st12{fill:#117B7B;}
	.st13{fill:#0E7472;}
	.st14{fill:#E6E6E6;}
	.st15{fill:#C2A100;}
	.st16{fill:#D6C260;}
	.st17{fill:#FFFFFF;}
	.st18{fill:#949596;}
	.st19{fill:#BABBBD;}
	.st20{fill:#EFD87C;}
	.st21{opacity:0.4;fill:#EFD87C;}
	.st22{fill:#F4E5AB;}
	.st23{fill:#E2C85E;}
	.st24{fill:#B0CAF4;}
	.st25{fill:#81A9EF;}
	.st26{fill:#628FE2;}
	.st27{opacity:0.4;fill:#81A9EF;}
	.st28{fill:#7D6728;}
</style>
<g>
	<path class="st0" d="M744.8,393.8c0,187.7-152.2,339.9-339.9,339.9C217.2,733.7,65,581.6,65,393.8C65,206.1,217.2,53.9,404.9,53.9
		C592.7,53.9,744.8,206.1,744.8,393.8z"/>
	<g>
		<path class="st1" d="M185.2,425.1l-57.5-33.6l-20.3-11.8c-0.2,4.8-0.4,9.5-0.4,14.4c0,37.5,7,73.4,19.6,106.5h91.5L185.2,425.1z"
			/>
		<path class="st1" d="M404.4,96.6c-115.7,0-215.9,66-265.1,162.4l24,14l0,0l49.9,29.2l6.9-21.7h123.2l0,0.1l2.3-0.1l45.8,7.1
			l-20.4-61.8l8.5-7.2l9.6,29.1l37.4,45.3l23.7,3.7l153.8,23.7L634,417l-30.5,72.2l-110.4,8.3l-6.4,0.5l-14.5,1.1v184.5
			c131.5-30.7,229.4-148.7,229.4-289.6C701.8,229.7,568.6,96.6,404.4,96.6z"/>
		<path class="st1" d="M358.2,507.6H221.3h-91.7c44.6,107.8,150.9,183.7,274.9,183.7c8.7,0,17.3-0.4,25.8-1.1v-188L358.2,507.6z"/>
		<path class="st2" d="M632.1,349.7L478.4,326l-23.7-3.7l-37.4-45.3l-9.6-29.1l-8.5,7.2l20.4,61.8l-45.8-7.1l-2.3,0.1l0-0.1H248.2
			l-6.9,21.7l-49.9-29.2l0,0l-24-14L98.3,248L37.6,351.8l93.1,54.4v0l4.7,2.8l20.3,11.8l57.5,33.6l33,75.3h-91.5H104v7.2h53.5h91.7
			h136.9l72-5.4v154.8l0,0c0.8-0.1,8-1,21.5-4.8c6.8-1.9,20.7-6.1,20.7-6.1V528.4l14.5-1.1l6.4-0.5l110.4-8.3l30.5-72.2L632.1,349.7
			z"/>
		<g>
			<polygon class="st3" points="297.5,287.5 225.2,287.5 219.4,305.8 256.4,327.5 235.2,363.7 274.5,359.4 			"/>
			<polygon class="st3" points="230,485.2 219.7,390.3 195.7,431.2 195.3,431 225.7,500.4 298,500.4 288.5,478.8 			"/>
			<polygon class="st4" points="337.2,473.5 337.2,473.5 288.5,478.8 298,500.4 353.2,500.4 362.9,470.7 			"/>
			<polygon class="st4" points="324.2,354 324.2,354 355.3,350.6 361.8,349.9 340.7,287.6 338.5,287.6 338.5,287.5 318.4,287.5 
				297.5,287.5 274.5,359.4 			"/>
			<polygon class="st5" points="288.5,478.8 337.2,473.5 337.2,473.4 288.5,478.7 230,485.1 272.3,441.7 301.4,411.8 264.2,391.5 
				229.9,372.8 219.7,390.3 230,485.2 			"/>
			<polygon class="st6" points="332,428.5 301.4,411.8 272.3,441.7 230,485.1 288.5,478.7 337.2,473.4 332.3,428.3 			"/>
			<polygon class="st7" points="301.4,411.8 332,428.5 332.3,428.3 327.6,385.3 324.2,354 324.2,354 274.5,359.4 235.2,363.7 
				229.9,372.8 264.2,391.5 			"/>
			
				<rect x="337.1" y="472.1" transform="matrix(0.9941 -0.1086 0.1086 0.9941 -49.1951 40.8029)" class="st4" width="25.8" height="0"/>
			
				<rect x="337.1" y="472.1" transform="matrix(0.9941 -0.1086 0.1086 0.9941 -49.1951 40.8029)" class="st8" width="25.8" height="0"/>
			<polygon class="st4" points="324.2,354 324.2,354 355.3,350.6 			"/>
			<polygon class="st8" points="324.2,354 324.2,354 355.3,350.6 			"/>
			<polygon class="st5" points="379.5,419.5 382.4,410.8 382.4,410.7 375.5,390.6 358.4,405.6 			"/>
			<polygon class="st8" points="379.5,419.5 382.4,410.8 382.4,410.7 375.5,390.6 358.4,405.6 			"/>
			<polygon class="st5" points="337.2,473.5 362.9,470.7 362.9,470.6 337.2,473.4 			"/>
			<polygon class="st8" points="337.2,473.5 362.9,470.7 362.9,470.6 337.2,473.4 			"/>
			<polygon class="st6" points="332.3,428.3 337.2,473.4 362.9,470.6 379.5,419.5 358.4,405.6 			"/>
			<polygon class="st8" points="332.3,428.3 337.2,473.4 362.9,470.6 379.5,419.5 358.4,405.6 			"/>
			<polygon class="st7" points="324.2,354 324.2,354 327.6,385.3 332.3,428.3 358.4,405.6 375.5,390.6 361.8,349.9 361.8,349.9 
				355.3,350.6 			"/>
			<polygon class="st8" points="324.2,354 324.2,354 327.6,385.3 332.3,428.3 358.4,405.6 375.5,390.6 361.8,349.9 361.8,349.9 
				355.3,350.6 			"/>
			<path class="st9" d="M368.8,349.1l12.4,36.5l8.5,25.1l49.2,1.3l195.1,5l-29.9-96.6l-153.8-23.7l-23.7-3.7l9.4,11.4l35.6,43.1
				L444,366.1c1.5,11.5-1.6,21.7-7.3,25.2c-1,0.6-2,1-3.1,1.2l-5.2,0.9c0,0,0,0,0,0c0,0,0,0,0,0l-0.9,0.1l0-0.1
				c-7.7,0.4-15.4-9.7-17.7-23.3c-0.5-3.1-0.7-6-0.6-8.9c0.2-4.6,1.1-8.7,2.7-11.9l-1.6-4.7l0,0l0,0l-13.1-39.8l-5.7-17.2l-45.8-7.1
				L368.8,349.1L368.8,349.1z"/>
			<path class="st10" d="M451.3,500.6l-0.3,0l-20.8,1.6v188c7.1-0.6,14.1-1.5,21.1-2.6c2.5-0.4,4.9-0.8,7.4-1.3V500.1L451.3,500.6z"
				/>
			<path class="st10" d="M472.1,499.1l-6.1,0.5l-7.4,0.6v186.3c2.5-0.5,4.9-0.9,7.4-1.5c2.1-0.4,4.2-0.9,6.4-1.4V499L472.1,499.1z"
				/>
			<path class="st11" d="M472.1,499.1l-6.1,0.5l-7.4,0.6v186.3c2.5-0.5,4.9-0.9,7.4-1.5c2.1-0.4,4.2-0.9,6.4-1.4V499L472.1,499.1z"
				/>
			<polygon class="st12" points="225.2,287.5 297.5,287.5 318.4,287.5 338.5,287.5 338.5,287.6 340.7,287.6 361.8,349.9 
				361.8,349.9 375.5,390.6 382.4,410.7 389.7,410.7 381.2,385.6 368.8,349.1 368.8,349.1 345.6,280.5 343.4,280.6 343.4,280.5 
				220.2,280.5 213.2,302.2 219.4,305.8 			"/>
			<polygon class="st13" points="195.3,431 195.3,431 185.2,425.1 218.1,500.4 225.7,500.4 195.3,431 			"/>
			<polygon class="st13" points="370.5,469.9 370.5,469.8 385.6,423.4 389.7,410.7 382.4,410.7 382.4,410.8 379.5,419.5 
				362.9,470.6 362.9,470.7 362.9,470.7 353.2,500.4 360.5,500.4 370.5,469.9 			"/>
			<polygon class="st14" points="389.7,410.7 385.6,423.4 370.5,469.8 370.5,469.9 370.5,469.9 360.5,500.4 358.2,507.6 
				430.2,502.2 451,500.6 451.3,500.6 458.6,500.1 466,499.5 472.1,499.1 472.4,499 486.8,497.9 493.2,497.5 603.5,489.2 634,417 
				438.9,412 			"/>
			<path class="st15" d="M419.6,339.9l0.7,2.2l4.8-0.8c1.7-0.3,3.5,0,5.2,0.8c0.2,0.1,0.3,0.2,0.5,0.2c0.2,0.1,0.3,0.2,0.5,0.2
				c2.1,1.2,4.1,3.1,5.9,5.5c2.5,3.4,4.6,8,5.8,13.1c0.3,1.1,0.5,2.2,0.7,3.3c0.1,0.5,0.2,1.1,0.2,1.6l27.6-18.7L436,304.4
				l-9.4-11.4l-37.4-45.3l13.7,41.6L419.6,339.9z"/>
			<path class="st16" d="M410.3,344.6L410.3,344.6L410.3,344.6l1.6,4.7c1.1-2.3,2.5-4.1,4.2-5.4v0l0,0c0.9-0.7,1.9-1.2,3-1.5l0-0.1
				l1-0.2l0.4-0.1l-0.7-2.2l-16.7-50.6l-13.7-41.6l-9.6-29.1l-8.5,7.2l20.4,61.8l5.7,17.2L410.3,344.6z"/>
			<path class="st17" d="M415,369.3c-0.8-4.6-0.8-9-0.2-12.9c0.1-1,0.3-1.9,0.5-2.8c1-4.4,2.9-8,5.5-10.1c0,0,0,0,0,0s0,0,0,0
				c0,0,0,0,0,0c1.3-1.1,2.8-1.9,4.4-2.1l-4.8,0.8l-0.4,0.1l-1,0.2l0,0.1c-1.1,0.3-2.1,0.8-3,1.5l0,0v0c-1.7,1.2-3.1,3.1-4.2,5.4
				c-1.6,3.2-2.5,7.3-2.7,11.9c-0.1,2.8,0.1,5.8,0.6,8.9c2.2,13.6,10,23.7,17.7,23.3l0,0.1l0.9-0.1c0,0,0,0,0,0c0,0,0,0,0,0l5.2-0.9
				C425.6,393.8,417.3,383.4,415,369.3z"/>
			<path class="st14" d="M443.1,361.2c-1.2-5.2-3.3-9.7-5.8-13.1c-1.8-2.4-3.8-4.3-5.9-5.5c-0.2-0.1-0.3-0.2-0.5-0.2
				c-0.2-0.1-0.3-0.2-0.5-0.2c-1.7-0.8-3.5-1.1-5.2-0.8c-1.6,0.3-3.1,1-4.4,2.1c0,0,0,0,0,0c0,0,0,0,0,0s0,0,0,0
				c-2.5,2.2-4.4,5.7-5.5,10.1c-0.2,0.9-0.4,1.8-0.5,2.8c-0.6,3.9-0.6,8.3,0.2,12.9c2.3,14.1,10.6,24.5,18.6,23.2
				c1.1-0.2,2.1-0.6,3.1-1.2c5.7-3.5,8.8-13.7,7.3-25.2c-0.1-0.5-0.1-1.1-0.2-1.6C443.6,363.4,443.4,362.3,443.1,361.2z
				 M433.7,372.3c-1.8,0.3-3.8-2.1-4.3-5.4c-0.5-3.3,0.5-6.2,2.4-6.5c0.4-0.1,0.9,0,1.3,0.2c0.1,0.1,0.2,0.1,0.3,0.2
				c1.2,0.8,2.3,2.7,2.7,4.9c0.4,2.5-0.1,4.8-1.2,5.8c-0.1,0.1-0.2,0.1-0.3,0.2C434.3,372,434,372.2,433.7,372.3z"/>
			<path class="st18" d="M434.5,371.4c-1.2-0.8-2.3-2.6-2.7-4.9c-0.4-2.5,0.1-4.8,1.2-5.8c-0.4-0.2-0.9-0.3-1.3-0.2
				c-1.8,0.3-2.9,3.2-2.4,6.5c0.5,3.3,2.5,5.7,4.3,5.4c0.3-0.1,0.6-0.2,0.9-0.4c0.1-0.1,0.2-0.1,0.3-0.2
				C434.7,371.6,434.6,371.5,434.5,371.4z"/>
			<path class="st19" d="M431.8,366.5c0.4,2.3,1.4,4.1,2.7,4.9c0.1,0.1,0.2,0.2,0.3,0.2c1.1-1.1,1.6-3.3,1.2-5.8
				c-0.4-2.3-1.4-4.1-2.7-4.9c-0.1-0.1-0.2-0.1-0.3-0.2C432,361.7,431.4,364,431.8,366.5z"/>
			<polygon class="st10" points="358.2,507.6 360.5,500.4 353.2,500.4 298,500.4 225.7,500.4 218.1,500.4 126.7,500.4 76,500.4 
				76,507.6 129.5,507.6 221.3,507.6 			"/>
			<polygon class="st20" points="195.3,431 185.2,425.1 127.6,391.4 185.2,425.1 195.3,431 			"/>
			<polygon class="st3" points="219.4,305.8 256.4,327.5 219.4,305.8 			"/>
			<polygon class="st21" points="219.4,305.8 256.4,327.5 219.4,305.8 			"/>
			<rect x="216.3" y="300.5" class="st12" width="0" height="7.1"/>
			<rect x="216.3" y="300.5" class="st21" width="0" height="7.1"/>
			<g>
				<polygon class="st22" points="70.2,218.6 9.6,322.4 110.7,306 				"/>
				<polygon class="st22" points="163.3,273.1 163.3,273.1 139.3,259 70.2,218.6 139.3,259 				"/>
				<polygon class="st20" points="125.6,337.6 125.3,337.6 116.6,318.8 110.7,306 9.6,322.4 102.7,376.8 108.2,367.3 				"/>
				<polygon class="st23" points="116.6,318.8 125.3,337.6 125.6,337.6 147.4,300.3 163.3,273.1 139.3,259 70.2,218.6 110.7,306 
									"/>
				<rect x="102.3" y="378.2" class="st21" width="5.5" height="0"/>
				<polygon class="st1" points="107.4,379.6 107.4,379.6 127.6,391.4 				"/>
				<polygon class="st21" points="107.4,379.6 107.4,379.6 127.6,391.4 				"/>
				
					<rect x="188.3" y="258.7" transform="matrix(0.5047 -0.8633 0.8633 0.5047 -155.0617 305.0008)" class="st1" width="0" height="57.8"/>
				
					<rect x="188.3" y="258.7" transform="matrix(0.5047 -0.8633 0.8633 0.5047 -155.0617 305.0008)" class="st21" width="0" height="57.8"/>
				<polygon class="st22" points="213.2,302.2 219.4,305.8 256,327.2 211.4,330.8 203.9,331.4 160,334.9 182.8,397 186.7,407.6 
					195.1,430.5 195.3,431 195.3,431 195.7,431.2 219.7,390.3 229.9,372.8 235.2,363.7 256.4,327.5 219.4,305.8 213.2,302.2 
					163.3,273.1 163.3,273.1 				"/>
				<polygon class="st21" points="213.2,302.2 219.4,305.8 256,327.2 211.4,330.8 203.9,331.4 160,334.9 182.8,397 186.7,407.6 
					195.1,430.5 195.3,431 195.3,431 195.7,431.2 219.7,390.3 229.9,372.8 235.2,363.7 256.4,327.5 219.4,305.8 213.2,302.2 
					163.3,273.1 163.3,273.1 				"/>
				<polygon class="st20" points="127.6,391.4 185.2,425.1 195.3,431 195.1,430.5 186.7,407.6 182.8,397 160,334.9 125.6,337.6 
					108.2,367.3 102.7,376.8 107.4,379.6 				"/>
				<polygon class="st21" points="127.6,391.4 185.2,425.1 195.3,431 195.1,430.5 186.7,407.6 182.8,397 160,334.9 125.6,337.6 
					108.2,367.3 102.7,376.8 107.4,379.6 				"/>
				<polygon class="st23" points="211.4,330.8 256,327.2 219.4,305.8 213.2,302.2 163.3,273.1 147.4,300.3 125.6,337.6 160,334.9 
					203.9,331.4 				"/>
				<polygon class="st21" points="211.4,330.8 256,327.2 219.4,305.8 213.2,302.2 163.3,273.1 147.4,300.3 125.6,337.6 160,334.9 
					203.9,331.4 				"/>
			</g>
			<g>
				<polygon class="st24" points="466.8,141.2 506.1,254.8 559.4,167.3 				"/>
				<polygon class="st24" points="568.7,105.9 568.7,105.9 542.4,115 466.8,141.2 542.4,115 				"/>
				<polygon class="st25" points="593.1,176.6 592.9,176.8 573,171.2 559.4,167.3 506.1,254.8 608,219.5 604.4,209.1 				"/>
				<polygon class="st26" points="573,171.2 592.9,176.8 593.1,176.6 579,135.8 568.7,105.9 542.4,115 466.8,141.2 559.4,167.3 				
					"/>
				<rect x="607.8" y="218.7" class="st27" width="5.5" height="0"/>
				<polygon class="st28" points="613.1,217.8 613.1,217.8 635.3,210.1 				"/>
				<polygon class="st27" points="613.1,217.8 613.1,217.8 635.3,210.1 				"/>
				
					<rect x="567.1" y="96.5" transform="matrix(0.9451 -0.3268 0.3268 0.9451 1.1913 200.0583)" class="st28" width="57.8" height="0"/>
				
					<rect x="567.1" y="96.5" transform="matrix(0.9451 -0.3268 0.3268 0.9451 1.1913 200.0583)" class="st27" width="57.8" height="0"/>
				<polygon class="st24" points="623.3,87 630,84.7 670.1,70.9 643.8,107 639.4,113.1 613.5,148.7 675.5,171.8 686.1,175.8 
					708.9,184.3 709.4,184.5 709.5,184.5 709.9,184.3 694.4,139.5 687.7,120.3 684.3,110.4 670.6,70.7 630,84.7 623.3,87 
					568.7,105.9 568.7,105.9 				"/>
				<polygon class="st27" points="623.3,87 630,84.7 670.1,70.9 643.8,107 639.4,113.1 613.5,148.7 675.5,171.8 686.1,175.8 
					708.9,184.3 709.4,184.5 709.5,184.5 709.9,184.3 694.4,139.5 687.7,120.3 684.3,110.4 670.6,70.7 630,84.7 623.3,87 
					568.7,105.9 568.7,105.9 				"/>
				<polygon class="st25" points="635.3,210.1 698.3,188.3 709.4,184.5 708.9,184.3 686.1,175.8 675.5,171.8 613.5,148.7 
					593.1,176.6 604.4,209.1 608,219.5 613.1,217.8 				"/>
				<polygon class="st27" points="635.3,210.1 698.3,188.3 709.4,184.5 708.9,184.3 686.1,175.8 675.5,171.8 613.5,148.7 
					593.1,176.6 604.4,209.1 608,219.5 613.1,217.8 				"/>
				<polygon class="st26" points="643.8,107 670.1,70.9 630,84.7 623.3,87 568.7,105.9 579,135.8 593.1,176.6 613.5,148.7 
					639.4,113.1 				"/>
				<polygon class="st27" points="643.8,107 670.1,70.9 630,84.7 623.3,87 568.7,105.9 579,135.8 593.1,176.6 613.5,148.7 
					639.4,113.1 				"/>
			</g>
		</g>
	</g>
</g>
</svg>
