<svg xmlns="http://www.w3.org/2000/svg" xmlns:xlink="http://www.w3.org/1999/xlink" viewBox="0 0 500 500"><defs><style>.cls-1{fill:url(#Degradado_sin_nombre_925);}.cls-2{fill:url(#Degradado_sin_nombre_925-2);}.cls-3{fill:url(#Degradado_sin_nombre_925-3);}.cls-4{fill:url(#Degradado_sin_nombre_925-4);}.cls-5{fill:url(#Degradado_sin_nombre_925-5);}.cls-6{fill:url(#Degradado_sin_nombre_925-6);}.cls-7{fill:url(#Degradado_sin_nombre_925-7);}.cls-8{fill:url(#Degradado_sin_nombre_925-8);}.cls-9{fill:url(#Degradado_sin_nombre_925-9);}.cls-10{fill:url(#Degradado_sin_nombre_925-10);}</style><linearGradient id="Degradado_sin_nombre_925" x1="373.18" y1="72.34" x2="482.15" y2="72.34" gradientUnits="userSpaceOnUse"><stop offset="0" stop-color="#702bff"/><stop offset="0.43" stop-color="#a33aff"/><stop offset="0.65" stop-color="#b33dff"/><stop offset="1" stop-color="#d343ff"/></linearGradient><linearGradient id="Degradado_sin_nombre_925-2" x1="-887.3" y1="860.12" x2="-558.61" y2="531.43" gradientTransform="matrix(0.71, -0.71, -0.71, -0.71, 1253.2, 52.99)" xlink:href="#Degradado_sin_nombre_925"/><linearGradient id="Degradado_sin_nombre_925-3" x1="-521.72" y1="571.78" x2="-518.26" y2="568.33" gradientTransform="matrix(0.71, -0.71, -0.71, -0.71, 1253.2, 52.99)" xlink:href="#Degradado_sin_nombre_925"/><linearGradient id="Degradado_sin_nombre_925-4" x1="56.09" y1="443.8" x2="370.28" y2="129.61" xlink:href="#Degradado_sin_nombre_925"/><linearGradient id="Degradado_sin_nombre_925-5" x1="-539.05" y1="657.4" x2="-535.25" y2="653.61" gradientTransform="translate(398.73 -825.75) rotate(-45)" xlink:href="#Degradado_sin_nombre_925"/><linearGradient id="Degradado_sin_nombre_925-6" x1="311.67" y1="420.75" x2="598.63" y2="133.79" xlink:href="#Degradado_sin_nombre_925"/><linearGradient id="Degradado_sin_nombre_925-7" x1="-848.77" y1="898.65" x2="-520.08" y2="569.96" gradientTransform="matrix(0.71, -0.71, -0.71, -0.71, 1253.2, 52.99)" xlink:href="#Degradado_sin_nombre_925"/><linearGradient id="Degradado_sin_nombre_925-8" x1="-865.93" y1="984.1" x2="-537.24" y2="655.41" gradientTransform="translate(398.73 -825.75) rotate(-45)" xlink:href="#Degradado_sin_nombre_925"/><linearGradient id="Degradado_sin_nombre_925-9" x1="-925.89" y1="821.53" x2="-597.2" y2="492.84" gradientTransform="matrix(0.71, -0.71, -0.71, -0.71, 1253.2, 52.99)" xlink:href="#Degradado_sin_nombre_925"/><linearGradient id="Degradado_sin_nombre_925-10" x1="-943.05" y1="906.98" x2="-614.36" y2="578.29" gradientTransform="translate(398.73 -825.75) rotate(-45)" xlink:href="#Degradado_sin_nombre_925"/></defs><g id="OBJECTS"><polygon class="cls-1" points="373.24 126.76 373.45 126.83 482.15 17.85 373.18 126.55 373.24 126.76"/><polygon class="cls-2" points="373.24 126.76 373.18 126.55 482.15 17.85 482.42 17.58 17.58 17.58 17.75 126.82 373.17 126.83 373.17 126.73 373.24 126.76"/><polygon class="cls-3" points="482.42 17.58 482.42 17.58 482.42 17.58 482.42 17.58"/><polygon class="cls-4" points="269.1 153.92 268.97 153.66 17.58 405.06 94.71 482.42 346.43 230.7 346.43 153.83 269.1 153.92"/><polygon class="cls-5" points="482.42 17.58 482.42 17.58 482.42 17.58 482.42 17.58"/><polygon class="cls-6" points="482.42 17.58 482.15 17.85 373.45 126.83 373.24 126.76 373.26 126.83 373.17 126.83 373.18 153.79 373.18 203.95 373.18 482.25 482.42 482.42 482.42 17.58"/><polygon class="cls-7" points="482.42 17.58 482.42 17.58 482.42 17.58 482.15 17.85 482.42 17.58"/><polygon class="cls-8" points="482.42 17.58 482.42 17.58 482.42 17.58 482.15 17.85 482.42 17.58"/><polygon class="cls-9" points="373.24 126.76 373.17 126.73 373.17 126.83 373.26 126.83 373.24 126.76"/><polygon class="cls-10" points="373.24 126.76 373.17 126.73 373.17 126.83 373.26 126.83 373.24 126.76"/></g></svg>